<?xml version="1.0" encoding="utf-8"?>
<!-- Generator: Adobe Illustrator 24.0.1, SVG Export Plug-In . SVG Version: 6.00 Build 0)  -->
<svg version="1.1" id="图层_1" xmlns="http://www.w3.org/2000/svg" xmlns:xlink="http://www.w3.org/1999/xlink" x="0px" y="0px"
	 viewBox="0 0 496.86 54" style="enable-background:new 0 0 496.86 54;" xml:space="preserve">
<style type="text/css">
	.st0{fill:#007FFF;}
</style>
<polygon class="st0" points="320.89,54 310.08,54 311.98,43.19 322.76,43.19 "/>
<polygon points="6.64,0 17.93,0 12.46,44.69 36.07,44.69 34.9,54 0,54 "/>
<polygon points="55.87,0 67.2,0 60.56,54 49.23,54 "/>
<path d="M99.2,0h9.97l-1.28,10.45h-3.45L85.6,53.96H73.76C73.76,54,99.2,0,99.2,0z"/>
<polygon points="89.3,32.44 114.49,32.44 116.25,40.91 85.53,40.91 "/>
<polygon points="104.7,10.48 105.98,0 112.55,0 124.72,54 112.84,54 "/>
<polygon points="144.55,0 154.41,0 178.57,42.23 169.96,35.12 174.72,35.12 179.05,0 190.3,0 183.67,54 173.88,54 149.68,11.51 
	158.26,18.66 153.53,18.66 149.17,54 137.91,54 "/>
<polygon points="206.94,0 218.24,0 215.52,21.92 239.87,21.92 242.54,0 253.87,0 247.23,54 235.91,54 238.69,31.27 214.39,31.27 
	211.6,54 200.31,54 "/>
<polygon points="270.48,0 306.26,0 305.08,9.31 280.63,9.31 279.02,22.25 302.11,22.25 301.05,31.12 277.95,31.12 276.31,44.65 
	300.76,44.65 299.62,53.96 263.84,53.96 "/>
<polygon points="354.91,0 364.89,0 363.6,10.47 360.16,10.47 341.32,54 329.46,54 "/>
<polygon points="345.01,32.44 370.2,32.44 371.94,40.91 341.22,40.91 "/>
<polygon points="360.4,10.47 361.68,0 368.24,0 380.43,54 368.52,54 "/>
<path d="M400.27,0h22.3c4.05,0,7.43,0.68,10.13,2.07s4.68,3.37,5.88,5.94c1.22,2.57,1.61,5.68,1.15,9.28v0.09
	c-0.44,3.57-1.7,6.73-3.79,9.49s-4.72,4.72-7.86,5.88L436.85,54h-12.83l-7.62-19.53h-9.04L404.97,54h-11.3L400.27,0L400.27,0z
	 M418.15,25.85c2.79,0,5.09-0.76,6.86-2.24s2.83-3.57,3.16-6.21v-0.09c0.31-2.59-0.26-4.64-1.74-6.18
	c-1.48-1.52-3.59-2.29-6.38-2.29h-9.62l-2.09,17L418.15,25.85L418.15,25.85z"/>
<polygon points="468.77,9.32 453.13,9.32 454.27,0 496.86,0 495.7,9.32 480.07,9.32 474.58,54 463.28,54 "/>
</svg>
